  <svg class="logo" width="161" height="22" viewBox="0 0 161 22" fill="none">
        <path d="M0.914353 15.3247V7.58388H4.16654C4.60294 7.58388 4.98045 7.667 5.29909 7.83325C5.62466 7.99257 5.87402 8.21769 6.0472 8.50862C6.2273 8.79955 6.31735 9.13897 6.31735 9.52688C6.31735 9.92864 6.21691 10.2854 6.01603 10.5971C5.82207 10.9019 5.54153 11.1339 5.17441 11.2932L5.16402 11.0439C5.4688 11.1547 5.72856 11.3106 5.94329 11.5114C6.16496 11.7123 6.33466 11.9478 6.45242 12.218C6.57018 12.4812 6.62906 12.7652 6.62906 13.07C6.62906 13.7627 6.4074 14.3134 5.96407 14.7221C5.52768 15.1238 4.93196 15.3247 4.17693 15.3247H0.914353ZM1.74558 14.5454H4.17693C4.66874 14.5454 5.06011 14.4173 5.35104 14.161C5.6489 13.8978 5.79783 13.5376 5.79783 13.0804C5.79783 12.6301 5.6489 12.2734 5.35104 12.0102C5.06011 11.74 4.66874 11.605 4.17693 11.605H1.74558V14.5454ZM1.74558 10.8568H4.1042C4.51981 10.8568 4.8523 10.7356 5.10167 10.4932C5.35797 10.2507 5.48612 9.93903 5.48612 9.55805C5.48612 9.17014 5.35797 8.87575 5.10167 8.67487C4.8523 8.46706 4.51981 8.36316 4.1042 8.36316H1.74558V10.8568ZM8.00432 15.3247V9.75547H8.7836V10.6698L8.6797 10.5347C8.81131 10.2715 9.00872 10.0637 9.27195 9.91132C9.5421 9.75893 9.86766 9.68273 10.2486 9.68273H10.6019V10.462H10.1136C9.71181 10.462 9.3897 10.5867 9.14726 10.8361C8.90482 11.0854 8.7836 11.4387 8.7836 11.8959V15.3247H8.00432ZM14.1231 15.4494C13.5967 15.4494 13.1187 15.3247 12.6892 15.0753C12.2598 14.819 11.9169 14.4727 11.6606 14.0363C11.4112 13.593 11.2865 13.0908 11.2865 12.5297C11.2865 11.9755 11.4112 11.4803 11.6606 11.0439C11.91 10.6075 12.2459 10.2646 12.6685 10.0152C13.0979 9.75893 13.5828 9.63078 14.1231 9.63078C14.6634 9.63078 15.1448 9.75547 15.5674 10.0048C15.9968 10.2542 16.3328 10.5971 16.5752 11.0335C16.8246 11.4699 16.9493 11.9686 16.9493 12.5297C16.9493 13.0977 16.8211 13.6034 16.5649 14.0467C16.3086 14.4831 15.9657 14.826 15.5362 15.0753C15.1137 15.3247 14.6426 15.4494 14.1231 15.4494ZM14.1231 14.6701C14.4972 14.6701 14.8331 14.5766 15.131 14.3896C15.4358 14.2025 15.6747 13.9463 15.8479 13.6207C16.028 13.2951 16.1181 12.9315 16.1181 12.5297C16.1181 12.1279 16.028 11.7677 15.8479 11.4491C15.6747 11.1305 15.4358 10.8776 15.131 10.6906C14.8331 10.5036 14.4972 10.4101 14.1231 10.4101C13.7491 10.4101 13.4096 10.5036 13.1049 10.6906C12.807 10.8776 12.568 11.1305 12.3879 11.4491C12.2078 11.7677 12.1178 12.1279 12.1178 12.5297C12.1178 12.9315 12.2078 13.2951 12.3879 13.6207C12.568 13.9463 12.807 14.2025 13.1049 14.3896C13.4096 14.5766 13.7491 14.6701 14.1231 14.6701ZM20.2978 15.4494C19.9099 15.4494 19.5567 15.3593 19.238 15.1792C18.9194 14.9922 18.6665 14.7359 18.4795 14.4104C18.2994 14.0779 18.2094 13.6969 18.2094 13.2674V9.75547H18.9886V13.1739C18.9886 13.4718 19.0475 13.735 19.1653 13.9636C19.29 14.1852 19.4597 14.3584 19.6744 14.4831C19.8961 14.6078 20.1489 14.6701 20.4329 14.6701C20.7169 14.6701 20.9697 14.6078 21.1914 14.4831C21.4131 14.3515 21.5862 14.1679 21.7109 13.9324C21.8356 13.69 21.898 13.4025 21.898 13.07V9.75547H22.6772V15.3247H21.898V14.2441L22.0746 14.2857C21.943 14.6459 21.7179 14.9299 21.3992 15.1377C21.0806 15.3455 20.7135 15.4494 20.2978 15.4494ZM26.919 17.6106C26.538 17.6106 26.1848 17.5517 25.8592 17.434C25.5406 17.3162 25.2635 17.1534 25.028 16.9456C24.7994 16.7447 24.6227 16.5092 24.4981 16.2391L25.215 15.8546C25.3258 16.1178 25.5232 16.3464 25.8073 16.5404C26.0913 16.7343 26.4549 16.8313 26.8982 16.8313C27.2377 16.8313 27.5494 16.7655 27.8334 16.6339C28.1174 16.5023 28.346 16.3083 28.5191 16.052C28.6923 15.7957 28.7789 15.4806 28.7789 15.1065V13.8701L28.9036 13.9843C28.7096 14.3861 28.4222 14.6978 28.0412 14.9195C27.6602 15.1342 27.2446 15.2416 26.7943 15.2416C26.2748 15.2416 25.8073 15.1169 25.3916 14.8675C24.976 14.6182 24.647 14.2822 24.4046 13.8597C24.169 13.4302 24.0513 12.9557 24.0513 12.4362C24.0513 11.9097 24.169 11.4352 24.4046 11.0127C24.647 10.5902 24.9726 10.2542 25.3812 10.0048C25.7969 9.75547 26.2679 9.63078 26.7943 9.63078C27.2446 9.63078 27.6533 9.73469 28.0204 9.94249C28.3945 10.1503 28.6888 10.4308 28.9036 10.7841L28.7789 11.0023V9.75547H29.5582V15.1065C29.5582 15.5845 29.4439 16.0105 29.2153 16.3845C28.9936 16.7655 28.6819 17.0634 28.2802 17.2781C27.8853 17.4998 27.4316 17.6106 26.919 17.6106ZM26.8359 14.4623C27.1961 14.4623 27.5217 14.3723 27.8126 14.1922C28.1035 14.0051 28.3356 13.7592 28.5087 13.4544C28.6888 13.1427 28.7789 12.8033 28.7789 12.4362C28.7789 12.0691 28.6888 11.7331 28.5087 11.4283C28.3356 11.1166 28.1035 10.8707 27.8126 10.6906C27.5217 10.5036 27.1961 10.4101 26.8359 10.4101C26.4688 10.4101 26.1363 10.5036 25.8384 10.6906C25.5406 10.8707 25.3051 11.1131 25.1319 11.4179C24.9656 11.7227 24.8825 12.0621 24.8825 12.4362C24.8825 12.8033 24.9656 13.1427 25.1319 13.4544C25.3051 13.7592 25.5371 14.0051 25.828 14.1922C26.1259 14.3723 26.4618 14.4623 26.8359 14.4623ZM31.1594 15.3247V7.45919H31.9387V10.8361L31.7621 10.7945C31.9006 10.4343 32.1257 10.1503 32.4374 9.94249C32.7561 9.73469 33.1232 9.63078 33.5388 9.63078C33.9337 9.63078 34.2869 9.72083 34.5986 9.90093C34.9173 10.081 35.1667 10.3304 35.3468 10.649C35.5338 10.9607 35.6273 11.314 35.6273 11.7089V15.3247H34.848V12.0102C34.848 11.6708 34.7857 11.3833 34.661 11.1478C34.5363 10.9123 34.3631 10.7322 34.1415 10.6075C33.9267 10.4759 33.6808 10.4101 33.4038 10.4101C33.1267 10.4101 32.8773 10.4759 32.6556 10.6075C32.434 10.7322 32.2573 10.9157 32.1257 11.1582C32.0011 11.3937 31.9387 11.6777 31.9387 12.0102V15.3247H31.1594ZM39.2457 15.387C38.7469 15.387 38.3625 15.2416 38.0923 14.9507C37.8222 14.6597 37.6871 14.2441 37.6871 13.7038V10.5347H36.6585V9.75547H36.9182C37.1537 9.75547 37.3408 9.67927 37.4793 9.52688C37.6178 9.36756 37.6871 9.17014 37.6871 8.93463V8.46706H38.4664V9.75547H39.6924V10.5347H38.4664V13.7038C38.4664 13.8908 38.4941 14.0571 38.5495 14.2025C38.6049 14.3411 38.6984 14.4519 38.83 14.535C38.9686 14.6182 39.1521 14.6597 39.3807 14.6597C39.4361 14.6597 39.502 14.6563 39.5781 14.6493C39.6543 14.6424 39.7201 14.6355 39.7756 14.6286V15.3247C39.6924 15.3455 39.5989 15.3593 39.495 15.3663C39.3911 15.3801 39.308 15.387 39.2457 15.387ZM45.0395 15.387C44.5408 15.387 44.1563 15.2416 43.8862 14.9507C43.616 14.6597 43.481 14.2441 43.481 13.7038V10.5347H42.4523V9.75547H42.7121C42.9476 9.75547 43.1346 9.67927 43.2731 9.52688C43.4117 9.36756 43.481 9.17014 43.481 8.93463V8.46706H44.2602V9.75547H45.4863V10.5347H44.2602V13.7038C44.2602 13.8908 44.2879 14.0571 44.3434 14.2025C44.3988 14.3411 44.4923 14.4519 44.6239 14.535C44.7624 14.6182 44.946 14.6597 45.1746 14.6597C45.23 14.6597 45.2958 14.6563 45.372 14.6493C45.4482 14.6424 45.514 14.6355 45.5694 14.6286V15.3247C45.4863 15.3455 45.3928 15.3593 45.2889 15.3663C45.185 15.3801 45.1018 15.387 45.0395 15.387ZM49.3428 15.4494C48.8164 15.4494 48.3384 15.3247 47.909 15.0753C47.4795 14.819 47.1366 14.4727 46.8803 14.0363C46.6309 13.593 46.5063 13.0908 46.5063 12.5297C46.5063 11.9755 46.6309 11.4803 46.8803 11.0439C47.1297 10.6075 47.4656 10.2646 47.8882 10.0152C48.3176 9.75893 48.8025 9.63078 49.3428 9.63078C49.8831 9.63078 50.3645 9.75547 50.7871 10.0048C51.2166 10.2542 51.5525 10.5971 51.795 11.0335C52.0443 11.4699 52.169 11.9686 52.169 12.5297C52.169 13.0977 52.0409 13.6034 51.7846 14.0467C51.5283 14.4831 51.1854 14.826 50.7559 15.0753C50.3334 15.3247 49.8623 15.4494 49.3428 15.4494ZM49.3428 14.6701C49.7169 14.6701 50.0528 14.5766 50.3507 14.3896C50.6555 14.2025 50.8945 13.9463 51.0676 13.6207C51.2477 13.2951 51.3378 12.9315 51.3378 12.5297C51.3378 12.1279 51.2477 11.7677 51.0676 11.4491C50.8945 11.1305 50.6555 10.8776 50.3507 10.6906C50.0528 10.5036 49.7169 10.4101 49.3428 10.4101C48.9688 10.4101 48.6294 10.5036 48.3246 10.6906C48.0267 10.8776 47.7877 11.1305 47.6076 11.4491C47.4275 11.7677 47.3375 12.1279 47.3375 12.5297C47.3375 12.9315 47.4275 13.2951 47.6076 13.6207C47.7877 13.9463 48.0267 14.2025 48.3246 14.3896C48.6294 14.5766 48.9688 14.6701 49.3428 14.6701ZM55.4232 17.6106C55.3124 17.6106 55.1981 17.6002 55.0803 17.5794C54.9695 17.5656 54.8587 17.5379 54.7479 17.4963V16.769C54.8171 16.7759 54.9037 16.7863 55.0076 16.8001C55.1184 16.8209 55.2293 16.8313 55.3401 16.8313C55.6795 16.8313 55.9393 16.7586 56.1194 16.6131C56.2995 16.4746 56.4761 16.2044 56.6493 15.8027L57.0026 14.9714L56.9818 15.6572L54.6232 9.75547H55.4648L57.3974 14.6286H57.1792L59.1014 9.75547H59.9638L57.4182 16.0313C57.3073 16.3014 57.1653 16.5577 56.9922 16.8001C56.8259 17.0426 56.6147 17.2365 56.3584 17.382C56.1021 17.5344 55.7904 17.6106 55.4232 17.6106ZM63.3861 15.4494C62.8596 15.4494 62.3817 15.3247 61.9522 15.0753C61.5227 14.819 61.1798 14.4727 60.9235 14.0363C60.6742 13.593 60.5495 13.0908 60.5495 12.5297C60.5495 11.9755 60.6742 11.4803 60.9235 11.0439C61.1729 10.6075 61.5089 10.2646 61.9314 10.0152C62.3609 9.75893 62.8458 9.63078 63.3861 9.63078C63.9264 9.63078 64.4078 9.75547 64.8303 10.0048C65.2598 10.2542 65.5958 10.5971 65.8382 11.0335C66.0876 11.4699 66.2122 11.9686 66.2122 12.5297C66.2122 13.0977 66.0841 13.6034 65.8278 14.0467C65.5715 14.4831 65.2286 14.826 64.7992 15.0753C64.3766 15.3247 63.9056 15.4494 63.3861 15.4494ZM63.3861 14.6701C63.7601 14.6701 64.0961 14.5766 64.3939 14.3896C64.6987 14.2025 64.9377 13.9463 65.1109 13.6207C65.291 13.2951 65.381 12.9315 65.381 12.5297C65.381 12.1279 65.291 11.7677 65.1109 11.4491C64.9377 11.1305 64.6987 10.8776 64.3939 10.6906C64.0961 10.5036 63.7601 10.4101 63.3861 10.4101C63.012 10.4101 62.6726 10.5036 62.3678 10.6906C62.07 10.8776 61.831 11.1305 61.6509 11.4491C61.4708 11.7677 61.3807 12.1279 61.3807 12.5297C61.3807 12.9315 61.4708 13.2951 61.6509 13.6207C61.831 13.9463 62.07 14.2025 62.3678 14.3896C62.6726 14.5766 63.012 14.6701 63.3861 14.6701ZM69.5608 15.4494C69.1729 15.4494 68.8196 15.3593 68.501 15.1792C68.1823 14.9922 67.9295 14.7359 67.7425 14.4104C67.5624 14.0779 67.4723 13.6969 67.4723 13.2674V9.75547H68.2516V13.1739C68.2516 13.4718 68.3105 13.735 68.4282 13.9636C68.5529 14.1852 68.7226 14.3584 68.9374 14.4831C69.159 14.6078 69.4119 14.6701 69.6959 14.6701C69.9799 14.6701 70.2327 14.6078 70.4544 14.4831C70.676 14.3515 70.8492 14.1679 70.9739 13.9324C71.0986 13.69 71.1609 13.4025 71.1609 13.07V9.75547H71.9402V15.3247H71.1609V14.2441L71.3375 14.2857C71.2059 14.6459 70.9808 14.9299 70.6622 15.1377C70.3435 15.3455 69.9764 15.4494 69.5608 15.4494ZM78.1242 15.4494C77.6462 15.4494 77.2133 15.342 76.8254 15.1273C76.4444 14.9056 76.1569 14.5939 75.963 14.1922L76.0876 14.0779V15.3247H75.3084V7.45919H76.0876V11.0023L75.963 10.7841C76.1846 10.4308 76.479 10.1503 76.8461 9.94249C77.2202 9.73469 77.6462 9.63078 78.1242 9.63078C78.6506 9.63078 79.1182 9.75893 79.5269 10.0152C79.9425 10.2646 80.268 10.6075 80.5036 11.0439C80.746 11.4803 80.8672 11.979 80.8672 12.5401C80.8672 13.0942 80.746 13.593 80.5036 14.0363C80.268 14.4727 79.9425 14.819 79.5269 15.0753C79.1182 15.3247 78.6506 15.4494 78.1242 15.4494ZM78.0826 14.6701C78.4567 14.6701 78.7891 14.5766 79.0801 14.3896C79.3779 14.2025 79.61 13.9497 79.7762 13.6311C79.9494 13.3055 80.036 12.9418 80.036 12.5401C80.036 12.1314 79.9494 11.7677 79.7762 11.4491C79.61 11.1305 79.3779 10.8776 79.0801 10.6906C78.7891 10.5036 78.4567 10.4101 78.0826 10.4101C77.7085 10.4101 77.3691 10.5036 77.0643 10.6906C76.7665 10.8776 76.5275 11.1339 76.3474 11.4595C76.1742 11.7781 76.0876 12.1383 76.0876 12.5401C76.0876 12.9418 76.1742 13.3055 76.3474 13.6311C76.5275 13.9497 76.7665 14.2025 77.0643 14.3896C77.3691 14.5766 77.7085 14.6701 78.0826 14.6701ZM82.2515 17.6106C82.1407 17.6106 82.0264 17.6002 81.9086 17.5794C81.7978 17.5656 81.687 17.5379 81.5761 17.4963V16.769C81.6454 16.7759 81.732 16.7863 81.8359 16.8001C81.9467 16.8209 82.0575 16.8313 82.1684 16.8313C82.5078 16.8313 82.7676 16.7586 82.9477 16.6131C83.1278 16.4746 83.3044 16.2044 83.4776 15.8027L83.8308 14.9714L83.8101 15.6572L81.4514 9.75547H82.2931L84.2257 14.6286H84.0075L85.9297 9.75547H86.7921L84.2464 16.0313C84.1356 16.3014 83.9936 16.5577 83.8204 16.8001C83.6542 17.0426 83.4429 17.2365 83.1866 17.382C82.9303 17.5344 82.6186 17.6106 82.2515 17.6106Z" fill="white"/>
        <path d="M110.121 16.3039L111.394 16.2311C113.793 16.0854 114.321 15.3204 113.812 13.0074C113.812 13.0074 112.212 14.3005 111.594 14.7558C110.321 15.7211 109.485 15.539 108.412 14.1002L106.504 11.4228L107.231 14.6283C107.704 16.4314 108.158 16.3039 110.121 16.3039Z" fill="white"/>
        <path d="M107.376 18.362L108.576 18.8173C110.83 19.6734 111.612 19.1816 112.103 16.8503C112.103 16.8503 110.121 17.3785 109.376 17.5424C107.813 17.9067 107.122 17.3967 106.74 15.6483L106.086 12.4246L105.449 15.6301C105.104 17.506 105.558 17.5606 107.376 18.362Z" fill="white"/>
        <path d="M104.013 19.127L104.922 20.0376C106.631 21.7314 107.54 21.6039 108.94 19.6734C108.94 19.6734 106.922 19.3455 106.158 19.1998C104.595 18.9084 104.159 18.1435 104.522 16.395L105.231 13.1895L103.341 15.8668C102.286 17.4149 102.668 17.6699 104.013 19.127Z" fill="white"/>
        <path d="M100.632 18.4531L101.086 19.6369C101.959 21.8953 102.85 22.1321 104.904 20.9483C104.904 20.9483 103.195 19.8191 102.559 19.3819C101.25 18.4713 101.159 17.6153 102.195 16.14L104.141 13.4991L101.323 15.1747C99.7412 16.1947 99.9957 16.5771 100.632 18.4531Z" fill="white"/>
        <path d="M97.8141 16.4679L97.7414 17.7428C97.6324 20.1651 98.3413 20.7479 100.705 20.493C100.705 20.493 99.5957 18.7627 99.1958 18.107C98.3595 16.7411 98.6504 15.9215 100.177 15.0108L103.031 13.3898L99.7775 13.7723C97.9232 14.0455 97.9959 14.5009 97.8141 16.4679Z" fill="white"/>
        <path d="M96.0326 13.4991L95.4509 14.6466C94.3602 16.8139 94.7783 17.6335 97.0325 18.362C97.0325 18.362 96.7234 16.3404 96.6144 15.5754C96.4144 13.9909 96.9961 13.3534 98.7776 13.1349L102.05 12.8252L98.9231 11.8599C97.1415 11.3318 97.0143 11.7871 96.0326 13.4991Z" fill="white"/>
        <path d="M95.6328 10.0751L94.6511 10.8764C92.7787 12.4063 92.815 13.3352 94.5784 14.9198C94.5784 14.9198 95.1238 12.9345 95.3419 12.206C95.7964 10.6761 96.5962 10.3301 98.3051 10.8582L101.414 11.8964L98.9595 9.72902C97.5052 8.52696 97.2325 8.89122 95.6328 10.0751Z" fill="white"/>
        <path d="M96.6508 6.76028L95.4146 7.08811C93.0877 7.72557 92.7423 8.58158 93.7058 10.7489C93.7058 10.7489 94.9965 9.1644 95.5055 8.58158C96.5417 7.36131 97.4143 7.37952 98.7595 8.56337L101.177 10.7854L99.8139 7.81664C98.9958 6.12282 98.5777 6.34137 96.6508 6.76028Z" fill="white"/>
        <path d="M98.9231 4.17402L97.6688 3.97368C95.2874 3.60942 94.6329 4.24688 94.6329 6.63279C94.6329 6.63279 96.469 5.70392 97.1598 5.37608C98.5959 4.68398 99.3958 5.04825 100.141 6.68743L101.45 9.69259L101.414 6.41423C101.323 4.53828 100.85 4.57471 98.9231 4.17402Z" fill="white"/>
        <path d="M102.05 2.71697L100.977 2.02487C98.9413 0.713523 98.0869 1.04136 97.1234 3.20872C97.1234 3.20872 99.1776 3.11765 99.9411 3.09944C101.541 3.06301 102.104 3.71868 102.141 5.50357L102.104 8.78192L103.395 5.77676C104.086 4.02831 103.65 3.8826 102.05 2.71697Z" fill="white"/>
        <path d="M105.504 2.68055L104.813 1.60598C103.486 -0.415674 102.577 -0.470315 100.814 1.11422C100.814 1.11422 102.723 1.86096 103.432 2.15237C104.904 2.77162 105.159 3.59121 104.45 5.2486L103.086 8.23554L105.486 6.01354C106.831 4.7022 106.504 4.37437 105.504 2.68055Z" fill="white"/>
        <path d="M108.667 4.02832L108.467 2.77162C108.067 0.385704 107.267 -0.0331964 105.013 0.695327C105.013 0.695327 106.449 2.15238 106.976 2.71698C108.067 3.88262 107.976 4.73863 106.667 5.95891L104.213 8.12626L107.304 7.06991C109.067 6.43245 108.885 5.99533 108.667 4.02832Z" fill="white"/>
        <path d="M111.012 6.57814L111.339 5.33965C111.957 3.00838 111.376 2.27985 109.012 2.02487C109.012 2.02487 109.74 3.93724 109.994 4.66577C110.521 6.17745 110.085 6.92419 108.394 7.50701L105.268 8.49052L108.522 8.80014C110.394 8.92763 110.412 8.45409 111.012 6.57814Z" fill="white"/>
        <path d="M112.121 9.8383L112.921 8.83658C114.43 6.94242 114.193 6.04998 112.139 4.86613C112.139 4.86613 112.03 6.92421 111.957 7.68915C111.83 9.29191 111.121 9.78366 109.34 9.61974L106.086 9.23727L108.94 10.84C110.612 11.7325 110.812 11.3136 112.121 9.8383Z" fill="white"/>
        <path d="M111.812 13.2806L112.939 12.6977C115.084 11.5867 115.23 10.6761 113.848 8.76371C113.848 8.76371 112.903 10.585 112.539 11.2589C111.776 12.6613 110.921 12.8252 109.358 11.951L106.54 10.2754L108.503 12.8981C109.649 14.3916 110.012 14.1001 111.812 13.2806Z" fill="white"/>
        <path d="M110.121 16.3039L111.394 16.2311C113.793 16.0854 114.321 15.3204 113.812 13.0074C113.812 13.0074 112.212 14.3005 111.594 14.7558C110.321 15.7211 109.485 15.539 108.412 14.1002L106.504 11.4228L107.231 14.6283C107.704 16.4314 108.158 16.3039 110.121 16.3039Z" fill="white"/>
        <path d="M107.376 18.362L108.576 18.8173C110.83 19.6734 111.612 19.1816 112.103 16.8503C112.103 16.8503 110.121 17.3785 109.376 17.5424C107.813 17.9067 107.122 17.3967 106.74 15.6483L106.086 12.4246L105.449 15.6301C105.104 17.506 105.558 17.5606 107.376 18.362Z" fill="white"/>
        <path d="M104.013 19.127L104.922 20.0376C106.631 21.7314 107.54 21.6039 108.94 19.6734C108.94 19.6734 106.922 19.3455 106.158 19.1998C104.595 18.9084 104.159 18.1435 104.522 16.395L105.231 13.1895L103.341 15.8668C102.286 17.4149 102.668 17.6699 104.013 19.127Z" fill="white"/>
        <path d="M100.632 18.4531L101.086 19.6369C101.959 21.8953 102.85 22.1321 104.904 20.9483C104.904 20.9483 103.195 19.8191 102.559 19.3819C101.25 18.4713 101.159 17.6153 102.195 16.14L104.141 13.4991L101.323 15.1747C99.7412 16.1947 99.9957 16.5771 100.632 18.4531Z" fill="white"/>
        <path d="M97.8141 16.4679L97.7414 17.7428C97.6324 20.1651 98.3413 20.7479 100.705 20.493C100.705 20.493 99.5957 18.7627 99.1958 18.107C98.3595 16.7411 98.6504 15.9215 100.177 15.0108L103.031 13.3898L99.7775 13.7723C97.9232 14.0455 97.9959 14.5009 97.8141 16.4679Z" fill="white"/>
        <path d="M96.0326 13.4991L95.4509 14.6466C94.3602 16.8139 94.7783 17.6335 97.0325 18.362C97.0325 18.362 96.7234 16.3404 96.6144 15.5754C96.4144 13.9909 96.9961 13.3534 98.7776 13.1349L102.05 12.8252L98.9231 11.8599C97.1415 11.3318 97.0143 11.7871 96.0326 13.4991Z" fill="white"/>
        <path d="M95.6328 10.0751L94.6511 10.8764C92.7787 12.4063 92.815 13.3352 94.5784 14.9198C94.5784 14.9198 95.1238 12.9345 95.3419 12.206C95.7964 10.6761 96.5962 10.3301 98.3051 10.8582L101.414 11.8964L98.9595 9.72902C97.5052 8.52696 97.2325 8.89122 95.6328 10.0751Z" fill="white"/>
        <path d="M96.6508 6.76028L95.4146 7.08811C93.0877 7.72557 92.7423 8.58158 93.7058 10.7489C93.7058 10.7489 94.9965 9.1644 95.5055 8.58158C96.5417 7.36131 97.4143 7.37952 98.7595 8.56337L101.177 10.7854L99.8139 7.81664C98.9958 6.12282 98.5777 6.34137 96.6508 6.76028Z" fill="white"/>
        <path d="M98.9231 4.17402L97.6688 3.97368C95.2874 3.60942 94.6329 4.24688 94.6329 6.63279C94.6329 6.63279 96.469 5.70392 97.1598 5.37608C98.5959 4.68398 99.3958 5.04825 100.141 6.68743L101.45 9.69259L101.414 6.41423C101.323 4.53828 100.85 4.57471 98.9231 4.17402Z" fill="white"/>
        <path d="M102.05 2.71697L100.977 2.02487C98.9413 0.713523 98.0869 1.04136 97.1234 3.20872C97.1234 3.20872 99.1776 3.11765 99.9411 3.09944C101.541 3.06301 102.104 3.71868 102.141 5.50357L102.104 8.78192L103.395 5.77676C104.086 4.02831 103.65 3.8826 102.05 2.71697Z" fill="white"/>
        <path d="M105.504 2.68055L104.813 1.60598C103.486 -0.415674 102.577 -0.470315 100.814 1.11422C100.814 1.11422 102.723 1.86096 103.432 2.15237C104.904 2.77162 105.159 3.59121 104.45 5.2486L103.086 8.23554L105.486 6.01354C106.831 4.7022 106.504 4.37437 105.504 2.68055Z" fill="white"/>
        <path d="M108.667 4.02832L108.467 2.77162C108.067 0.385704 107.267 -0.0331964 105.013 0.695327C105.013 0.695327 106.449 2.15238 106.976 2.71698C108.067 3.88262 107.976 4.73863 106.667 5.95891L104.213 8.12626L107.304 7.06991C109.067 6.43245 108.885 5.99533 108.667 4.02832Z" fill="white"/>
        <path d="M111.012 6.57814L111.339 5.33965C111.957 3.00838 111.376 2.27985 109.012 2.02487C109.012 2.02487 109.74 3.93724 109.994 4.66577C110.521 6.17745 110.085 6.92419 108.394 7.50701L105.268 8.49052L108.522 8.80014C110.394 8.92763 110.412 8.45409 111.012 6.57814Z" fill="white"/>
        <path d="M112.121 9.8383L112.921 8.83658C114.43 6.94242 114.193 6.04998 112.139 4.86613C112.139 4.86613 112.03 6.92421 111.957 7.68915C111.83 9.29191 111.121 9.78366 109.34 9.61974L106.086 9.23727L108.94 10.84C110.612 11.7325 110.812 11.3136 112.121 9.8383Z" fill="white"/>
        <path d="M111.812 13.2806L112.939 12.6977C115.084 11.5867 115.23 10.6761 113.848 8.76371C113.848 8.76371 112.903 10.585 112.539 11.2589C111.776 12.6613 110.921 12.8252 109.358 11.951L106.54 10.2754L108.503 12.8981C109.649 14.3916 110.012 14.1001 111.812 13.2806Z" fill="white"/>
        <path d="M124.814 15.5607C124.169 15.5607 123.573 15.4409 123 15.2014C122.426 14.9619 121.949 14.6265 121.519 14.1954C121.089 13.7643 120.755 13.2613 120.516 12.6864C120.278 12.1116 120.158 11.5128 120.158 10.8421C120.158 10.1714 120.278 9.57263 120.516 8.99778C120.755 8.42293 121.089 7.94389 121.519 7.51275C121.949 7.08161 122.45 6.74627 123.023 6.50674C123.596 6.26722 124.217 6.14746 124.886 6.14746C125.626 6.14746 126.318 6.29119 126.963 6.57861C127.584 6.86604 128.109 7.24927 128.515 7.77622L127.321 8.97383C127.035 8.5906 126.677 8.32713 126.271 8.11156C125.841 7.91994 125.387 7.82412 124.886 7.82412C124.313 7.82412 123.787 7.94387 123.358 8.20735C122.904 8.47082 122.57 8.80616 122.307 9.26125C122.068 9.71634 121.925 10.2433 121.925 10.8421C121.925 11.4409 122.044 11.9918 122.283 12.4469C122.522 12.902 122.856 13.2613 123.286 13.5248C123.716 13.7882 124.193 13.908 124.743 13.908C125.316 13.908 125.793 13.8122 126.199 13.5966C126.605 13.381 126.915 13.0697 127.13 12.6625C127.345 12.2553 127.464 11.7523 127.464 11.1535L128.611 11.9439L124.647 11.896V10.363H129.279V10.6026C129.279 11.6804 129.088 12.5906 128.706 13.3331C128.324 14.0517 127.775 14.6026 127.106 14.9858C126.486 15.3691 125.698 15.5607 124.814 15.5607Z" fill="white"/>
        <path d="M133.006 15.5608C132.436 15.5608 131.938 15.4169 131.487 15.129C131.036 14.8412 130.68 14.4574 130.419 13.9537C130.158 13.45 130.039 12.8983 130.039 12.2986C130.039 11.675 130.158 11.1233 130.419 10.6196C130.68 10.1159 131.036 9.73206 131.487 9.44422C131.938 9.15638 132.46 9.01245 133.006 9.01245C133.456 9.01245 133.86 9.10839 134.192 9.2763C134.548 9.46819 134.833 9.70807 135.023 10.0439C135.236 10.3797 135.355 10.7395 135.355 11.1473V13.402C135.331 13.8098 135.213 14.1936 135.023 14.5054C134.809 14.8172 134.524 15.081 134.192 15.2729C133.86 15.4648 133.456 15.5608 133.006 15.5608ZM133.314 14.0017C133.789 14.0017 134.168 13.8338 134.453 13.5219C134.738 13.2101 134.88 12.8023 134.88 12.2986C134.88 11.9628 134.809 11.675 134.691 11.4111C134.548 11.1473 134.382 10.9554 134.145 10.8114C133.907 10.6675 133.623 10.5956 133.314 10.5956C133.006 10.5956 132.745 10.6675 132.507 10.8114C132.27 10.9554 132.08 11.1473 131.961 11.4111C131.819 11.675 131.772 11.9628 131.772 12.2986C131.772 12.6344 131.843 12.9223 131.961 13.1861C132.104 13.45 132.27 13.6419 132.507 13.7858C132.745 13.9297 133.006 14.0017 133.314 14.0017ZM134.809 15.4409V13.7618L135.07 12.2267L134.809 10.7155V9.18037H136.47V15.4409H134.809Z" fill="white"/>
        <path d="M137.815 15.4436V6.08887H139.511V15.4436H137.815Z" fill="white"/>
        <path d="M141.703 8.16824C141.414 8.16824 141.197 8.07252 141.004 7.88107C140.811 7.68961 140.739 7.47421 140.739 7.18703C140.739 6.92377 140.835 6.68444 141.004 6.49299C141.197 6.30153 141.414 6.20581 141.703 6.20581C141.993 6.20581 142.234 6.30153 142.403 6.49299C142.572 6.68444 142.668 6.92377 142.668 7.18703C142.668 7.47421 142.572 7.68961 142.403 7.88107C142.21 8.07252 141.993 8.16824 141.703 8.16824ZM140.835 15.4436V9.19734H142.548V15.4436H140.835Z" fill="white"/>
        <path d="M143.896 15.4436V6.08887H145.592V15.4436H143.896Z" fill="white"/>
        <path d="M149.94 15.5608C149.296 15.5608 148.699 15.4169 148.198 15.129C147.696 14.8412 147.291 14.4574 146.98 13.9777C146.694 13.474 146.527 12.9223 146.527 12.2986C146.527 11.675 146.67 11.1233 146.956 10.6196C147.243 10.1398 147.649 9.73206 148.15 9.44422C148.651 9.15638 149.2 9.01245 149.821 9.01245C150.417 9.01245 150.966 9.15639 151.42 9.42024C151.873 9.68409 152.232 10.0679 152.494 10.5476C152.757 11.0273 152.9 11.555 152.9 12.1547C152.9 12.2746 152.9 12.3706 152.876 12.4905C152.852 12.6104 152.828 12.7304 152.804 12.8983L147.553 12.9223V11.651L152.017 11.627L151.324 12.1547C151.301 11.7709 151.229 11.4831 151.134 11.2192C151.014 10.9794 150.847 10.7875 150.632 10.6435C150.417 10.4996 150.155 10.4516 149.821 10.4516C149.487 10.4516 149.2 10.5236 148.938 10.6675C148.699 10.8114 148.508 11.0273 148.365 11.3152C148.222 11.579 148.174 11.9148 148.174 12.2746C148.174 12.6584 148.245 12.9942 148.389 13.2581C148.532 13.5459 148.747 13.7618 149.009 13.9057C149.272 14.0496 149.582 14.1216 149.94 14.1216C150.25 14.1216 150.537 14.0736 150.799 13.9537C151.062 13.8337 151.277 13.6898 151.468 13.4739L152.47 14.4814C152.16 14.8412 151.802 15.1051 151.372 15.2969C150.919 15.4649 150.441 15.5608 149.94 15.5608Z" fill="white"/>
        <path d="M156.771 15.5608C156.149 15.5608 155.576 15.4169 155.074 15.129C154.573 14.8412 154.167 14.4334 153.88 13.9537C153.593 13.45 153.426 12.8983 153.426 12.2746C153.426 11.651 153.569 11.0993 153.856 10.6196C154.143 10.1398 154.549 9.73206 155.051 9.44422C155.552 9.15638 156.126 9.01245 156.747 9.01245C157.392 9.01245 157.965 9.15638 158.467 9.44422C158.969 9.73206 159.375 10.1159 159.661 10.6196C159.948 11.0993 160.091 11.651 160.091 12.2746C160.091 12.8983 159.948 13.45 159.661 13.9537C159.375 14.4574 158.969 14.8412 158.467 15.129C157.965 15.4169 157.392 15.5608 156.771 15.5608ZM156.747 13.9777C157.057 13.9777 157.344 13.9057 157.583 13.7618C157.822 13.6179 158.013 13.426 158.156 13.1621C158.3 12.8983 158.347 12.6104 158.347 12.2746C158.347 11.9388 158.276 11.651 158.132 11.4111C157.989 11.1712 157.798 10.9554 157.559 10.8114C157.32 10.6675 157.033 10.5956 156.723 10.5956C156.412 10.5956 156.126 10.6675 155.887 10.8114C155.648 10.9554 155.457 11.1473 155.313 11.4111C155.17 11.651 155.098 11.9628 155.098 12.2746C155.098 12.6104 155.17 12.8983 155.313 13.1621C155.457 13.426 155.648 13.6179 155.887 13.7618C156.173 13.9057 156.436 13.9777 156.747 13.9777Z" fill="white"/>
      </svg>